HIERARCHY
ROOT Hips
{
 OFFSET 0.000000 0.000000 0.000000
 CHANNELS 6 Xposition Yposition Zposition Yrotation Xrotation Zrotation
 JOINT Chest
 {
  OFFSET 0.000000 10.383400 0.001500
  CHANNELS 3 Yrotation Xrotation Zrotation
  JOINT Chest2
  {
   OFFSET 0.000000 10.418200 -0.003100
   CHANNELS 3 Yrotation Xrotation Zrotation
   JOINT Chest3
   {
    OFFSET 0.000000 10.375100 0.000000
    CHANNELS 3 Yrotation Xrotation Zrotation
    JOINT Chest4
    {
     OFFSET 0.000000 10.364600 0.000000
     CHANNELS 3 Yrotation Xrotation Zrotation
     JOINT Neck
     {
      OFFSET 0.000000 15.642200 0.000000
      CHANNELS 3 Yrotation Xrotation Zrotation
      JOINT Head
      {
       OFFSET 0.000000 9.697300 -0.006500
       CHANNELS 3 Yrotation Xrotation Zrotation
       End Site
       {
        OFFSET 0.000000 18.492200 -0.003400
       }
      }
     }
     JOINT RightCollar
     {
      OFFSET -3.166800 10.349300 0.000000
      CHANNELS 3 Yrotation Xrotation Zrotation
      JOINT RightShoulder
      {
       OFFSET -14.729700 0.000000 0.000000
       CHANNELS 3 Yrotation Xrotation Zrotation
       JOINT RightElbow
       {
        OFFSET 0.000000 -32.224300 0.000000
        CHANNELS 3 Yrotation Xrotation Zrotation
        JOINT RightWrist
        {
         OFFSET 0.000000 -26.084100 0.000000
         CHANNELS 3 Yrotation Xrotation Zrotation
         End Site
         {
          OFFSET 0.000000 -19.319400 0.000000
         }
        }
       }
      }
     }
     JOINT LeftCollar
     {
      OFFSET 3.166800 10.349300 0.000000
      CHANNELS 3 Yrotation Xrotation Zrotation
      JOINT LeftShoulder
      {
       OFFSET 14.729700 0.000000 0.000000
       CHANNELS 3 Yrotation Xrotation Zrotation
       JOINT LeftElbow
       {
        OFFSET 0.000000 -32.224300 0.000000
        CHANNELS 3 Yrotation Xrotation Zrotation
        JOINT LeftWrist
        {
         OFFSET 0.000000 -26.084100 0.000000
         CHANNELS 3 Yrotation Xrotation Zrotation
         End Site
         {
          OFFSET 0.000000 -19.319400 0.000000
         }
        }
       }
      }
     }
    }
   }
  }
 }
 JOINT RightHip
 {
  OFFSET -8.428900 -0.007500 -0.000800
  CHANNELS 3 Yrotation Xrotation Zrotation
  JOINT RightKnee
  {
   OFFSET 0.000000 -43.834600 0.000700
   CHANNELS 3 Yrotation Xrotation Zrotation
   JOINT RightAnkle
   {
    OFFSET 0.000000 -42.757000 0.001200
    CHANNELS 3 Yrotation Xrotation Zrotation
    JOINT RightToe
    {
     OFFSET 0.000000 -6.946900 15.649300
     CHANNELS 3 Yrotation Xrotation Zrotation
     End Site
     {
      OFFSET 0.000000 -1.580800 6.825800
     }
    }
   }
  }
 }
 JOINT LeftHip
 {
  OFFSET 8.428900 -0.007500 -0.000800
  CHANNELS 3 Yrotation Xrotation Zrotation
  JOINT LeftKnee
  {
   OFFSET 0.000000 -43.834600 0.000700
   CHANNELS 3 Yrotation Xrotation Zrotation
   JOINT LeftAnkle
   {
    OFFSET 0.000000 -42.757000 0.001200
    CHANNELS 3 Yrotation Xrotation Zrotation
    JOINT LeftToe
    {
     OFFSET 0.000000 -6.946900 15.649300
     CHANNELS 3 Yrotation Xrotation Zrotation
     End Site
     {
      OFFSET 0.000000 -1.580800 6.825800
     }
    }
   }
  }
 }
}
MOTION
Frames: 11
Frame Time: 0.008333
-0.117510 126.425107 -6.336065 170.437547 -19.584948 -2.169978 -1.356996 17.423164 2.218691 -0.139632 1.882258 0.254490 -0.275342 3.129397 0.424149 -1.216332 15.266570 1.975624 -0.843152 12.106887 4.272694 -1.918663 -12.921100 4.782745 0.269711 -2.675593 -4.028958 23.145272 -1.552217 -13.807070 -107.486120 -72.147709 152.628591 8.099857 -26.462130 -62.596532 -5.376206 0.169384 0.992842 -8.185845 -11.278549 15.303669 57.353983 -52.024013 -112.208949 3.209348 0.349361 -5.773495 4.021996 -48.224622 9.724695 -111.585758 83.688549 -106.949339 -1.332385 -20.838989 0.334560 0.002738 -0.009263 0.001215 2.143082 -49.831143 -2.608062 103.121485 80.248595 109.547386 10.143443 -16.516611 -9.840310 -0.001174 0.003440 -0.000521
-0.120398 126.424868 -6.336087 170.459984 -19.584556 -2.160839 -1.334436 17.420221 2.210698 -0.174201 1.882899 0.258136 -0.244497 3.126839 0.416344 -1.226691 15.266777 1.978858 -0.828101 12.084795 4.264384 -1.924285 -12.942281 4.791535 0.351116 -2.700487 -4.026861 23.071986 -1.542392 -13.809421 -107.412734 -72.132842 152.565960 8.104663 -26.465106 -62.661583 -5.319999 0.176679 0.941046 -8.129642 -11.237818 15.257045 57.379816 -52.040398 -112.196674 3.141111 0.555154 -5.957690 4.021426 -48.219458 9.709339 -111.585393 83.681021 -106.965381 -1.332052 -20.854804 0.332886 -0.000410 -0.010641 -0.000182 2.144762 -49.839590 -2.625026 103.144254 80.254914 109.555854 10.139842 -16.494796 -9.847739 -0.002338 0.008149 -0.001038
-0.121127 126.424545 -6.334914 170.483351 -19.580387 -2.165567 -1.283376 17.410887 2.217460 -0.206323 1.884387 0.263781 -0.252665 3.126118 0.416649 -1.203181 15.264903 1.969810 -0.832764 12.059737 4.271112 -1.926697 -12.965860 4.795271 0.358367 -2.714341 -4.002297 23.040206 -1.537698 -13.812484 -107.380580 -72.125338 152.549095 8.097133 -26.475299 -62.754383 -5.326901 0.181178 0.940896 -8.020774 -11.203904 15.173187 57.391489 -52.053111 -112.177549 3.074222 0.751695 -6.137307 4.004574 -48.218673 9.715743 -111.646538 83.684087 -107.049170 -1.342986 -20.872392 0.340639 -0.007894 -0.012272 -0.003503 2.150498 -49.868663 -2.613179 103.299611 80.282092 109.707495 10.119850 -16.477152 -9.835811 0.009283 -0.003545 0.004120
-0.122565 126.424581 -6.334674 170.491683 -19.582156 -2.161387 -1.262236 17.406755 2.213848 -0.198670 1.887537 0.261305 -0.279721 3.126935 0.423333 -1.165955 15.259558 1.956647 -0.833940 12.033530 4.273340 -1.925633 -12.991123 4.793663 0.372383 -2.726935 -3.976251 23.020492 -1.534688 -13.815764 -107.365633 -72.124607 152.527040 8.100087 -26.471221 -62.805912 -5.329224 0.183900 0.937114 -7.913442 -11.170439 15.092949 57.402268 -52.057114 -112.158420 3.006668 0.941378 -6.312727 4.013588 -48.209128 9.714082 -111.586430 83.674794 -106.994598 -1.350183 -20.888076 0.335195 -0.002208 -0.009372 -0.000980 2.159358 -49.875840 -2.617933 103.317374 80.278670 109.708795 10.095235 -16.465074 -9.819121 0.000082 0.001232 0.000037
-0.124731 126.424786 -6.334871 170.503834 -19.586191 -2.154955 -1.255307 17.405816 2.205049 -0.189849 1.884494 0.260445 -0.276898 3.125980 0.422443 -1.152946 15.258339 1.953972 -0.831655 12.009184 4.267154 -1.921496 -13.018565 4.787958 0.390979 -2.736607 -3.952540 23.013949 -1.534800 -13.817892 -107.364935 -72.129503 152.497263 8.095960 -26.464148 -62.850704 -5.349053 0.190949 0.942435 -7.788911 -11.142454 15.001982 57.417540 -52.053534 -112.138510 2.939598 1.097265 -6.468330 4.018151 -48.201793 9.705317 -111.598005 83.678438 -107.028524 -1.359911 -20.895412 0.350482 -0.009263 -0.011061 -0.004111 2.179406 -49.891330 -2.633247 103.392457 80.277010 109.778751 10.083517 -16.429097 -9.828669 0.001540 0.001274 0.000684
-0.126185 126.425012 -6.334652 170.526508 -19.588735 -2.156988 -1.249914 17.404756 2.201678 -0.187933 1.881870 0.259628 -0.250480 3.121945 0.415470 -1.161823 15.260822 1.958116 -0.826709 11.982037 4.261067 -1.917091 -13.047874 4.779206 0.413019 -2.747952 -3.927705 22.998878 -1.532046 -13.809310 -107.377833 -72.140583 152.478813 8.090813 -26.460047 -62.905773 -5.367049 0.194949 0.949396 -7.672679 -11.116773 14.914180 57.429886 -52.047000 -112.112327 2.871656 1.247272 -6.619585 4.010233 -48.192333 9.699566 -111.536551 83.677722 -106.975939 -1.367165 -20.898224 0.360519 -0.009544 -0.010294 -0.004236 2.181511 -49.907107 -2.643236 103.474431 80.278391 109.858114 10.070483 -16.408098 -9.822926 0.001880 -0.001312 0.000834
-0.126801 126.425300 -6.334192 170.537850 -19.591584 -2.160364 -1.223995 17.403131 2.203955 -0.195566 1.882650 0.261101 -0.236824 3.119085 0.412352 -1.154902 15.260521 1.960555 -0.825270 11.952304 4.249589 -1.913693 -13.078836 4.768363 0.435623 -2.758363 -3.905909 22.982383 -1.531928 -13.796577 -107.360488 -72.156817 152.419124 8.106869 -26.477108 -62.984482 -5.334775 0.178497 0.906664 -7.624521 -11.070677 14.874262 57.440926 -52.039180 -112.084719 2.796896 1.420903 -6.777188 4.011880 -48.183896 9.698375 -111.472524 83.677478 -106.916081 -1.371501 -20.904156 0.357361 -0.009239 -0.010406 -0.004101 2.187367 -49.919231 -2.646350 103.565278 80.276243 109.949306 10.055184 -16.395475 -9.819677 0.003697 -0.001256 0.001641
-0.128384 126.425561 -6.333791 170.548035 -19.594101 -2.157971 -1.203465 17.401117 2.199981 -0.162149 1.878257 0.253908 -0.282871 3.124648 0.424214 -1.125814 15.255521 1.955426 -0.823328 11.923828 4.234858 -1.909691 -13.111085 4.755706 0.456815 -2.764323 -3.882444 22.963290 -1.534937 -13.783962 -107.383820 -72.178237 152.416835 8.102398 -26.482073 -63.035798 -5.328147 0.157795 0.880984 -7.551584 -11.023008 14.817640 57.451311 -52.029894 -112.059058 2.720581 1.582911 -6.913272 4.042886 -48.172993 9.678135 -111.371240 83.672476 -106.802897 -1.379458 -20.917328 0.347518 -0.003451 -0.005662 -0.001532 2.193364 -49.925224 -2.654610 103.554357 80.268142 109.922122 10.033858 -16.379989 -9.796289 -0.005411 0.004230 -0.002402
-0.128774 126.425931 -6.333317 170.554353 -19.597638 -2.160339 -1.175469 17.399893 2.203959 -0.160352 1.878159 0.253491 -0.300057 3.126597 0.426144 -1.095371 15.253520 1.947404 -0.840406 11.909481 4.242585 -1.874703 -13.157453 4.713305 0.474524 -2.771533 -3.854595 22.922943 -1.530955 -13.776901 -107.424593 -72.177448 152.446990 8.091246 -26.473636 -63.063454 -5.338219 0.141479 0.878509 -7.460402 -10.987893 14.748015 57.455492 -52.012220 -112.030313 2.652247 1.813648 -7.054812 4.058138 -48.166112 9.668361 -111.326995 83.670233 -106.748835 -1.384688 -20.920691 0.346783 0.000613 -0.004714 0.000272 2.195264 -49.929644 -2.656034 103.589461 80.268938 109.956918 10.018891 -16.367592 -9.790230 -0.005747 0.007906 -0.002551
-0.130203 126.426523 -6.333813 170.575292 -19.604927 -2.160149 -1.162092 17.403636 2.201383 -0.158255 1.878032 0.253139 -0.296790 3.124343 0.425605 -1.083038 15.253860 1.944461 -0.822708 11.875586 4.213612 -1.881780 -13.178803 4.703928 0.487078 -2.777454 -3.827539 22.882578 -1.528203 -13.769906 -107.419653 -72.164661 152.447254 8.104629 -26.450969 -63.091168 -5.372920 0.139408 0.893471 -7.346601 -10.972907 14.669580 57.451224 -51.981589 -111.991569 2.596976 2.031085 -7.194677 4.062827 -48.154487 9.650883 -111.347222 83.676982 -106.769055 -1.392834 -20.927784 0.348805 0.000652 -0.005626 0.000289 2.198148 -49.932871 -2.669325 103.648883 80.273228 110.017927 10.002685 -16.353010 -9.783587 -0.002176 0.007606 -0.000966
-0.132295 126.426771 -6.333562 170.600504 -19.606412 -2.157232 -1.153789 17.403002 2.194197 -0.155775 1.877771 0.252620 -0.263630 3.121574 0.419925 -1.096560 15.257608 1.953010 -0.803831 11.842814 4.173954 -1.889464 -13.197795 4.691624 0.495805 -2.788552 -3.801705 22.858386 -1.533396 -13.759657 -107.372743 -72.176824 152.371945 8.083626 -26.452088 -63.108271 -5.342217 0.062820 0.844827 -7.316089 -10.884130 14.648981 57.441144 -51.941365 -111.939082 2.538520 2.251671 -7.355125 4.057105 -48.149522 9.633626 -111.337031 83.675061 -106.771584 -1.390265 -20.929776 0.358244 -0.003506 -0.007926 -0.001556 2.221203 -49.942535 -2.699201 103.696667 80.287146 110.068219 9.996064 -16.339389 -9.763497 -0.001528 0.003990 -0.000678
